<svg width="36" height="36" viewBox="0 0 36 36" fill="none" xmlns="http://www.w3.org/2000/svg">
<rect width="36" height="36" rx="18" fill="#125CFA"/>
<path d="M29 12.3636C29 13.1167 28.3622 13.7273 27.5755 13.7273H25.8345V24.6364C25.8345 25.3894 25.1967 26 24.4101 26H20.1367C19.3501 26 18.7122 25.3894 18.7122 24.6364V19.4848H17.2878V24.6364C17.2878 25.3894 16.6499 26 15.8633 26H11.5899C10.8033 26 10.1655 25.3894 10.1655 24.6364V24.5667L10.3063 13.7273H8.42446C7.63784 13.7273 7 13.1167 7 12.3636C7 11.6106 7.63784 11 8.42446 11H11.7482C12.5348 11 13.1727 11.6106 13.1727 12.3636V12.4333L13.0318 23.2727H14.4388V18.1212C14.4388 17.3682 15.0767 16.7576 15.8633 16.7576H20.1367C20.9233 16.7576 21.5612 17.3682 21.5612 18.1212V23.2727H22.9856V12.3636C22.9856 11.6106 23.6235 11 24.4101 11H27.5755C28.3622 11 29 11.6106 29 12.3636Z" fill="white"/>
</svg>
