<svg width="379" height="71" viewBox="0 0 379 71" fill="none" xmlns="http://www.w3.org/2000/svg">
<path d="M97.6935 6.3767C97.6935 9.89806 94.8611 12.7534 91.368 12.7534H83.6369V63.767C83.6369 67.2884 80.8045 70.1438 77.3114 70.1438H58.335C54.8419 70.1438 52.0095 67.2884 52.0095 63.767V39.6773H45.684V63.767C45.684 67.2884 42.8516 70.1438 39.3585 70.1438H20.3821C16.889 70.1438 14.0566 67.2884 14.0566 63.767V63.4411L14.6821 12.7534H6.32548C2.83241 12.7534 0 9.89806 0 6.3767C0 2.85535 2.83241 0 6.32548 0H21.0849C24.578 0 27.4104 2.85535 27.4104 6.3767V6.70263L26.7849 57.3903H33.0331V33.3006C33.0331 29.7792 35.8655 26.9239 39.3585 26.9239H58.335C61.828 26.9239 64.6605 29.7792 64.6605 33.3006V57.3903H70.9859V6.3767C70.9859 2.85535 73.8183 0 77.3114 0H91.368C94.8611 0 97.6935 2.85535 97.6935 6.3767Z" fill="#125CFA"/>
<path d="M318.384 21.2563C321.878 21.2563 324.71 18.4014 324.71 14.8796C324.71 11.3579 321.878 8.50293 318.384 8.50293C314.891 8.50293 312.059 11.3579 312.059 14.8796C312.059 18.4014 314.891 21.2563 318.384 21.2563Z" fill="#125CFA"/>
<path d="M234.057 5.97266V6.78037C234.05 6.64575 234.043 6.51113 234.043 6.37651C234.043 6.24189 234.05 6.10728 234.057 5.97266Z" fill="#125CFA"/>
<path d="M378.125 6.3767C378.125 9.89806 375.292 12.7534 371.799 12.7534H363.049C363.147 27.5899 363.365 63.2073 363.365 63.767C363.365 67.2884 360.533 70.1438 357.04 70.1438C353.547 70.1438 350.714 67.2884 350.714 63.767L350.405 12.7534H341.577C338.084 12.7534 335.252 9.89806 335.252 6.3767C335.252 2.85535 338.084 0 341.577 0H371.799C375.292 0 378.125 2.85535 378.125 6.3767Z" fill="#125CFA"/>
<path d="M324.71 34.0091V63.767C324.71 67.2884 321.877 70.1438 318.384 70.1438H288.162C284.669 70.1438 281.837 67.2884 281.837 63.767V23.0412L269.144 37.3533L269.088 37.4171L268.842 37.6934L268.813 37.7288C267.661 38.9333 266.051 39.6773 264.266 39.6773C262.481 39.6773 260.871 38.9333 259.719 37.7288L259.691 37.6934L259.445 37.4171L259.389 37.3533L246.688 23.0482V63.767C246.695 67.2884 243.863 70.1438 240.37 70.1438H213.986L213.88 70.1367C213.81 70.1437 213.733 70.1438 213.662 70.1438C211.561 70.1438 209.698 69.1093 208.546 67.5151L208.419 67.3309L187.538 37.1549L187.51 37.1124L187.25 36.7298L187.215 36.6802C186.603 35.7025 186.252 34.5405 186.252 33.3006C186.252 29.7792 189.084 26.9239 192.577 26.9239H207.337V12.7534H180.629V63.767C180.629 67.2884 177.797 70.1438 174.304 70.1438H147.596C144.103 70.1438 141.271 67.2884 141.271 63.767V12.7534H119.483V57.3903H130.025C133.519 57.3903 136.351 60.2457 136.351 63.767C136.351 67.2884 133.519 70.1438 130.025 70.1438H113.158C109.664 70.1438 106.832 67.2884 106.832 63.767V6.3767C106.832 2.85535 109.664 0 113.158 0H147.596C151.089 0 153.922 2.85535 153.922 6.3767V57.3903H167.978V6.3767C167.978 2.85535 170.811 0 174.304 0H213.662C217.155 0 219.988 2.85535 219.988 6.3767V33.3006C219.988 36.8219 217.155 39.6773 213.662 39.6773H204.694L216.966 57.3974H234.044L234.058 6.78056V5.93034C234.29 2.61445 237.024 0 240.37 0C242.31 0 244.046 0.885653 245.205 2.27436H245.212L264.266 23.7497L283.285 2.32395L283.341 2.26019L283.587 1.98386L283.615 1.94844C284.768 0.743949 286.377 0 288.162 0C291.655 0 294.488 2.85535 294.488 6.3767C294.488 6.52549 294.481 6.67428 294.474 6.82307L294.488 57.3903H312.059V34.0091C312.059 30.4877 314.891 27.6324 318.384 27.6324C321.877 27.6324 324.71 30.4877 324.71 34.0091Z" fill="#125CFA"/>
</svg>
