<svg width="244" height="244" viewBox="0 0 244 244" fill="none" xmlns="http://www.w3.org/2000/svg">
<g opacity="0.9">
<circle cx="121.796" cy="121.794" r="121.294" stroke="#B7BFCC"/>
<path d="M121.795 66.3511C155.372 66.3511 185.747 72.6037 207.708 82.6909C229.713 92.7981 243.09 106.66 243.09 121.794C243.09 136.929 229.712 150.79 207.708 160.897C185.747 170.984 155.372 177.237 121.795 177.237C88.2175 177.237 57.8432 170.984 35.8818 160.897C13.8774 150.79 0.500288 136.929 0.5 121.794C0.5 106.66 13.8772 92.7981 35.8818 82.6909C57.8432 72.6037 88.2175 66.3511 121.795 66.3511Z" stroke="#B7BFCC"/>
<path d="M121.795 0.5C136.929 0.500288 150.79 13.8769 160.897 35.8809C170.985 57.842 177.237 88.2167 177.237 121.794C177.237 155.371 170.985 185.746 160.897 207.707C150.79 229.711 136.929 243.088 121.795 243.088C106.661 243.088 92.7986 229.711 82.6914 207.707C72.6041 185.746 66.3516 155.371 66.3516 121.794C66.3516 88.2167 72.6041 57.842 82.6914 35.8809C92.7986 13.8767 106.661 0.5 121.795 0.5Z" stroke="#B7BFCC"/>
<line x1="126.295" y1="-2.18557e-08" x2="126.295" y2="243.588" stroke="#B7BFCC"/>
</g>
</svg>
