<svg width="264" height="197" viewBox="0 0 264 197" fill="none" xmlns="http://www.w3.org/2000/svg">
<path d="M107.605 65.4922C110.709 65.5095 123.205 68.2169 125.644 69.7959C134.773 75.7053 126.474 84.3914 124.06 90.7497C124.126 95.2536 125.829 100.535 127.08 104.992C133.929 129.401 112.084 162.169 85.8381 144.041C81.729 141.203 78.055 135.271 73.6831 132.723C63.371 126.713 60.1973 139.391 49.4333 141.703C44.9019 141.349 41.464 140.185 38.9895 135.837C38.0558 134.196 37.0561 130.989 37.6044 129.194C39.8891 128.831 44.4195 132.087 45.9656 131.045C56.019 123.011 52.2568 117.899 66.2843 113.469C83.3744 108.073 93.9565 139.697 105.537 121.831C118.255 102.211 82.791 91.6496 96.0448 72.3629C99.2621 67.6811 102.333 66.5638 107.605 65.4922Z" fill="#125CFA"/>
<path d="M103.086 75.3857C104.868 75.4844 106.316 75.3952 107.785 76.4267C107.906 78.8827 104.829 80.2911 104.748 83.4022C105.934 87.2253 109.498 86.5501 112.381 86.0672L112.649 86.7631L110.883 90.1045C103.4 97.1669 92.5074 83.0911 103.086 75.3857Z" fill="#FBFAFB"/>
<path d="M118.531 69.1799C120.138 69.1554 121.291 69.1699 122.224 70.406C120.671 73.0794 118.564 75.3815 120.775 78.4469C123.581 82.3386 124.939 79.9835 127.092 80.4435C127.077 82.333 126.182 83.3941 125.162 84.9647C117.487 90.0818 108.46 76.8116 118.531 69.1799Z" fill="#FBFAFB"/>
<path d="M142.709 75.2207C145.991 78.3787 144.121 85.0152 141.96 88.3978C141.568 87.8536 142.486 76.9223 142.709 75.2207Z" fill="#125CFA"/>
<path d="M135.31 73.3086C136.369 73.6058 136.313 73.5494 137.016 74.3891C138.129 78.3605 138.127 80.7234 137.022 84.7071L136.133 83.9003C136.421 79.6836 136.234 77.3971 135.31 73.3086Z" fill="#125CFA"/>
<path d="M50.444 101.612L51.2093 101.775L51.2162 102.334C47.6694 103.89 45.8755 104.606 42.6706 106.871L42.2102 106.963L41.7256 106.388C43.9241 103.669 47.1522 102.414 50.444 101.612Z" fill="#125CFA"/>
<path d="M52.6016 107.548L53.7704 108.08C53.1813 109.187 48.6584 111.709 46.6416 113.355L46.2213 113.538L45.8672 112.994C46.9994 110.462 50.2105 108.684 52.6016 107.548Z" fill="#125CFA"/>
<path d="M39.4727 144.878C38.677 144.746 37.9139 145.048 37.3513 145.622C36.7887 146.198 36.4727 147.015 36.4727 147.878C36.4727 148.741 36.7887 149.558 37.3513 150.133C37.9139 150.708 38.677 151.01 39.4727 150.878C39.4727 150.878 39.4727 150.878 39.4727 150.878C42.4946 150.38 45.5165 149.944 48.5385 149.57C57.6494 148.442 66.7603 147.878 75.8712 147.878C121.155 147.878 166.439 148.757 211.723 150.514C214.745 150.632 217.767 150.753 220.789 150.878C221.584 150.911 222.348 150.599 222.91 150.033C223.473 149.467 223.789 148.69 223.789 147.878C223.789 147.065 223.473 146.289 222.91 145.723C222.348 145.157 221.584 144.845 220.789 144.878C220.789 144.878 220.789 144.878 220.789 144.878C217.767 145.003 214.745 145.124 211.723 145.242C166.439 146.999 121.155 147.878 75.8712 147.878C66.7603 147.878 57.6494 147.314 48.5385 146.186C45.5165 145.812 42.4946 145.376 39.4727 144.878Z" fill="#125CFA"/>
<path d="M197.339 47.7282C205.486 47.4762 203.702 50.5629 208.225 55.1236C209.421 55.2945 213.689 55.2542 214.551 55.8828C223.262 62.234 217.834 65.5189 215.232 70.4332C214.823 71.1987 217.209 78.4361 215.294 82.9999C211.855 86.2773 207.277 84.9049 203.324 83.1516C203.435 91.2654 203.72 103.198 202.872 111.062C206.186 103.892 210.938 96.5754 219.526 95.5554C221.508 95.3194 224.036 94.9776 225.684 96.2255C229.526 105.412 219.817 112.258 211.961 114.063C208.473 114.864 206.038 114.036 202.649 113.111C202.525 114.914 202.351 116.713 202.134 118.507C200.778 129.125 193.685 148.54 179.532 149.283C178.787 149.321 178.764 148.875 178.41 148.262L178.915 146.604L180.828 145.592C195.939 137.86 198.634 124.049 199.687 108.687C181.5 115.808 169.44 109.852 169.416 89.4148C185.267 85.183 193.515 92.2432 199.712 106.068C199.854 101.655 200.548 89.8582 199.693 86.2612C183.443 87.9588 190.981 76.4505 188.07 74.6446C179.588 69.381 178.978 61.6989 189.664 58.3738C193.748 57.1023 189.332 51.6653 197.339 47.7282Z" fill="#125CFA"/>
<path d="M199.762 61.2315C202.141 60.7342 204.6 61.5579 206.199 63.3849C207.797 65.2125 208.287 67.7604 207.481 70.0494C206.67 72.3384 204.687 74.013 202.296 74.4298C198.684 75.0603 195.226 72.6772 194.537 69.0752C193.847 65.4726 196.174 61.9821 199.762 61.2315Z" fill="#FBFAFB"/>
<path d="M177.2 95.252C180.996 95.7505 194.523 103.218 196.428 106.559C192.384 105.338 180.576 98.4192 177.2 95.252Z" fill="#FBFAFB"/>
<path d="M217.964 101.533L218.293 101.685L218.404 102.397C216.533 104.497 213.107 106.631 210.709 108.278C210.492 108.125 210.282 107.973 210.065 107.821C211.806 105.723 215.635 103.21 217.964 101.533Z" fill="#A1A3A5"/>
<path d="M107.665 80.0225C107.911 81.582 108.43 82.1811 110.222 82.5798C108.691 83.0433 108.361 83.2538 107.665 85.1371C107.533 83.3446 106.968 82.7719 105.108 82.5798C106.783 82.3836 107.571 81.4746 107.665 80.0225Z" fill="#FBFAFB"/>
<path d="M125.088 72.665C125.334 74.2246 125.853 74.8236 127.645 75.2223C126.114 75.6859 125.784 75.8964 125.088 77.7797C124.955 75.9871 124.39 75.4145 122.531 75.2223C124.205 75.0262 124.994 74.1172 125.088 72.665Z" fill="#FBFAFB"/>
</svg>
