<svg width="264" height="197" viewBox="0 0 264 197" fill="none" xmlns="http://www.w3.org/2000/svg">
<path d="M41.3418 133.394C40.5461 133.262 39.7831 133.564 39.2205 134.138C38.6579 134.713 38.3418 135.531 38.3418 136.394C38.3418 137.256 38.6579 138.074 39.2205 138.649C39.7831 139.223 40.5461 139.525 41.3418 139.394C41.3418 139.394 41.3418 139.394 41.3418 139.394C44.3637 138.895 47.3857 138.459 50.4076 138.085C59.5185 136.957 68.6294 136.394 77.7404 136.394C123.024 136.394 168.308 137.272 213.592 139.03C216.614 139.147 219.636 139.268 222.658 139.394C223.454 139.427 224.217 139.114 224.779 138.549C225.342 137.983 225.658 137.206 225.658 136.394C225.658 135.581 225.342 134.804 224.779 134.239C224.217 133.673 223.454 133.36 222.658 133.394C222.658 133.394 222.658 133.394 222.658 133.394C219.636 133.519 216.614 133.64 213.592 133.757C168.308 135.515 123.024 136.394 77.7404 136.394C68.6294 136.394 59.5185 135.83 50.4076 134.702C47.3857 134.328 44.3637 133.892 41.3418 133.394Z" fill="#125CFA"/>
<path d="M103.094 58.5524C117.929 56.9945 137.885 60.6074 124.027 79.7309C123.941 79.8493 125.23 88.5266 125.329 89.4842C138.587 85.7262 151.954 83.5241 165.742 84.37C165.626 85.7395 165.233 89.7085 165.516 90.8172C166.734 95.5987 167.936 92.8736 170.723 94.8048C171.88 99.8186 163.915 125.745 162.088 132.425C137.238 131.904 130.229 131.508 106.51 138.771C102.702 138.258 93.2979 134.991 88.1563 134.039C74.8758 131.581 63.6764 132.167 50.3067 132.465C48.5618 125.882 39.0321 98.2886 42.4062 94.0847C44.3149 93.6548 44.7663 93.6256 46.2969 92.4397C47.4593 90.2243 46.6564 86.9774 46.2995 84.382C64.482 83.1162 81.3023 87.1231 98.2458 93.2495C95.4376 79.5086 86.0152 66.8576 103.094 58.5524Z" fill="#125CFA"/>
<path d="M105.725 101.003C107.027 100.186 108.339 99.3863 109.661 98.6024C121.026 91.9841 150.656 83.8671 162.492 86.9956C163.489 88.7425 162.903 91.7652 162.713 93.9706C134.505 98.1585 132.339 97.9562 105.69 108.1C101.62 106.444 98.4938 104.641 93.9587 103.002C78.7595 97.5083 65.6894 95.828 49.9216 94.0345L48.6294 86.7121C65.702 86.195 92.1379 89.7215 105.725 101.003Z" fill="#FBFAFB"/>
<path d="M100.596 67.5381L101.995 68.0844C101.842 70.8289 101.941 75.4135 104.752 76.8136C106.571 76.3139 107.728 75.8746 109.466 75.1978L110.336 75.7735C111.093 78.4747 109.616 81.8394 107.813 83.8618C96.026 87.6058 91.654 74.3613 100.596 67.5381Z" fill="#FBFAFB"/>
<path d="M116.075 60.5527L117.549 61.0472C119.746 64.0059 116.418 66.4203 120.31 70.0319C122.108 70.762 122.558 70.5357 124.455 70.1085L125.049 69.9714L125.684 70.4618C126.259 73.4812 124.583 75.6913 122.659 77.7802C121.86 77.8088 121.061 77.8208 120.26 77.8155C111.197 77.7196 109.29 67.0193 116.075 60.5527Z" fill="#FBFAFB"/>
</svg>
