<svg width="264" height="197" viewBox="0 0 264 197" fill="none" xmlns="http://www.w3.org/2000/svg">
<path d="M49.7461 122.182C48.8862 122.013 48.0615 122.336 47.4534 122.959C46.8453 123.584 46.5037 124.478 46.5037 125.425C46.5037 126.371 46.8453 127.266 47.4534 127.89C48.0615 128.514 48.8862 128.837 49.7461 128.667C49.7461 128.667 49.7461 128.667 49.7461 128.667C52.4879 128.129 55.2297 127.657 57.9715 127.253C66.2378 126.034 74.5041 125.425 82.7704 125.425C123.856 125.425 164.942 126.375 206.029 128.274C208.77 128.401 211.512 128.532 214.254 128.667C215.114 128.71 215.939 128.373 216.547 127.761C217.155 127.149 217.496 126.306 217.496 125.425C217.496 124.543 217.155 123.701 216.547 123.089C215.939 122.477 215.114 122.14 214.254 122.182C214.254 122.182 214.254 122.182 214.254 122.182C211.512 122.318 208.77 122.449 206.029 122.575C164.942 124.475 123.856 125.425 82.7704 125.425C74.5041 125.425 66.2378 124.815 57.9715 123.596C55.2297 123.192 52.4879 122.721 49.7461 122.182Z" fill="#125CFA"/>
<path d="M139.355 71.6587C144.596 71.2489 155.814 72.2786 159.652 76.275C164.217 81.0265 162.013 87.7134 157.704 91.7479C157.946 100.375 157.155 107.604 152.353 115.074C144.833 126.772 127.903 129.236 118.748 118.105C117.089 116.087 114.655 112.654 112.557 111.235C107.558 111.512 105.491 128.495 95.2381 124.934C81.4687 120.152 88.2413 106.947 83.6081 97.6167L83.3548 97.1131C77.5109 89.3314 71.6608 93.3716 64.1366 94.8421L63.6431 93.9432C66.5756 80.5858 90.6672 81.5554 94.7394 98.2349C100.838 119.261 108.816 86.7808 116.096 99.9423C120.602 108.087 124.048 123.309 137.413 106.604C140.427 102.836 132.117 95.8617 129.917 90.7716C131.133 80.9636 129.829 76.2744 139.355 71.6587Z" fill="#125CFA"/>
<path d="M136.204 81.6982C138.098 81.9015 138.515 81.9969 140.312 82.6319C141.036 84.7273 136.752 85.6239 136.527 89.6921C137.54 94.0237 140.381 94.4117 144.174 94.415L144.063 95.9776C134.573 102.411 126.808 88.3817 136.204 81.6982Z" fill="#FBFAFB"/>
<path d="M152.295 73.7471C153.7 73.9874 154.167 74.2125 155.505 74.7431C156.001 76.6183 152.199 78.2533 152.102 80.6456C151.843 87.0607 156.016 85.912 159.617 86.4403L159.166 88.064L158.771 88.3694C151.928 93.5769 146.456 86.0304 147.715 79.5098C148.354 76.2006 149.7 75.5577 152.295 73.7471Z" fill="#FBFAFB"/>
</svg>
