<svg width="264" height="197" viewBox="0 0 264 197" fill="none" xmlns="http://www.w3.org/2000/svg">
<path d="M41.3418 146.27C40.5461 146.138 39.7831 146.44 39.2205 147.014C38.6579 147.589 38.3418 148.407 38.3418 149.27C38.3418 150.132 38.6579 150.95 39.2205 151.525C39.7831 152.099 40.5461 152.401 41.3418 152.27C41.3418 152.27 41.3418 152.27 41.3418 152.27C44.3637 151.771 47.3857 151.335 50.4076 150.961C59.5185 149.833 68.6294 149.27 77.7404 149.27C123.024 149.27 168.308 150.148 213.592 151.906C216.614 152.023 219.636 152.144 222.658 152.27C223.454 152.303 224.217 151.99 224.779 151.425C225.342 150.859 225.658 150.082 225.658 149.27C225.658 148.457 225.342 147.68 224.779 147.114C224.217 146.549 223.454 146.236 222.658 146.27C222.658 146.27 222.658 146.27 222.658 146.27C219.636 146.395 216.614 146.516 213.592 146.633C168.308 148.391 123.024 149.27 77.7404 149.27C68.6294 149.27 59.5185 148.706 50.4076 147.578C47.3857 147.204 44.3637 146.768 41.3418 146.27Z" fill="#125CFA"/>
<path d="M118.274 73.0155C122.3 72.6436 132.913 73.5263 136.084 75.9131C143.697 81.6436 138.965 89.5093 134.928 95.4829C142.215 115.902 140.378 146.778 112.531 146.8C98.2308 146.811 96.6986 133.157 84.8717 129.176C81.1093 130.296 79.8176 130.821 77.122 133.641C75.088 136.995 73.9009 140.929 72.5973 144.649C66.2202 134.234 69.6047 120.513 81.3432 115.269C92.0709 110.476 101.001 122.778 108.68 127.323C112.61 129.648 118.716 124.099 119.774 120.36C124.889 107.881 111.925 101.243 108.597 92.6779C107.169 88.93 107.273 84.7708 108.887 81.0988C110.908 76.5845 113.855 74.6855 118.274 73.0155Z" fill="#125CFA"/>
<path d="M115.204 82.2591C118.728 80.864 119.564 81.5074 122.816 83.2119C131.464 96.9698 113.455 101.323 111.287 89.4291C110.835 86.9486 113.453 83.9852 115.204 82.2591Z" fill="#FBFAFB"/>
<path d="M115.203 82.2591C118.728 80.864 119.564 81.5074 122.816 83.2119L121.969 84.2439C123.215 86.0723 122.764 88.5615 120.955 89.8359C119.146 91.1104 116.65 90.6992 115.345 88.9123C114.041 87.1248 114.413 84.6227 116.18 83.2906L115.203 82.2591Z" fill="#125CFA"/>
<path d="M115.204 82.2591C118.728 80.864 119.564 81.5074 122.816 83.2119L121.969 84.2439C121.345 83.3283 120.373 82.708 119.279 82.528C118.185 82.348 117.065 82.6234 116.18 83.2906L115.204 82.2591Z" fill="#FBFAFB"/>
<path d="M130.609 76.125L131.012 76.7162C128.913 80.2755 128.592 83.5552 133.504 84.7742C135.288 84.3786 137.028 83.3618 137.689 81.5721L138.279 81.7273C138.752 84.779 138.577 85.3702 137.799 88.3988C131.172 97.1875 119.253 83.0654 130.609 76.125Z" fill="#FBFAFB"/>
<path d="M134.457 57.7982C134.742 57.7985 135.016 57.9077 135.223 58.1034C135.431 58.2991 135.555 58.5666 135.572 58.8513C135.589 59.1359 135.496 59.4161 135.313 59.6348C135.13 59.8534 134.871 59.9939 134.588 60.0276L134.457 60.0354H133.338C133.053 60.0351 132.779 59.926 132.571 59.7302C132.364 59.5345 132.239 59.267 132.223 58.9824C132.206 58.6977 132.299 58.4175 132.482 58.1988C132.665 57.9802 132.924 57.8397 133.207 57.806L133.338 57.7982H134.457ZM143.406 47.7305C143.68 47.7305 143.944 47.8311 144.149 48.0132C144.354 48.1952 144.485 48.4461 144.517 48.7182L144.524 48.8491V49.9677C144.524 50.2529 144.415 50.5271 144.219 50.7344C144.023 50.9417 143.756 51.0665 143.471 51.0832C143.187 51.0999 142.906 51.0073 142.688 50.8243C142.469 50.6413 142.329 50.3817 142.295 50.0986L142.287 49.9677V48.8491C142.287 48.5524 142.405 48.2679 142.615 48.0581C142.825 47.8483 143.109 47.7305 143.406 47.7305ZM153.474 57.7982C153.759 57.7985 154.033 57.9077 154.24 58.1034C154.448 58.2991 154.572 58.5666 154.589 58.8513C154.606 59.1359 154.513 59.4161 154.33 59.6348C154.147 59.8534 153.888 59.9939 153.604 60.0276L153.474 60.0354H152.355C152.07 60.0351 151.796 59.926 151.588 59.7302C151.381 59.5345 151.256 59.267 151.239 58.9824C151.223 58.6977 151.315 58.4175 151.498 58.1988C151.681 57.9802 151.941 57.8397 152.224 57.806L152.355 57.7982H153.474ZM135.456 50.9667C135.648 50.7741 135.905 50.6584 136.176 50.6413C136.448 50.6242 136.717 50.7069 136.932 50.8738L137.037 50.9667L137.82 51.7497C138.021 51.951 138.138 52.2212 138.146 52.5052C138.155 52.7893 138.055 53.066 137.867 53.2792C137.679 53.4924 137.417 53.626 137.134 53.653C136.851 53.6799 136.569 53.5982 136.344 53.4243L136.239 53.3315L135.456 52.5484C135.246 52.3387 135.128 52.0542 135.128 51.7576C135.128 51.4609 135.246 51.1765 135.456 50.9667ZM149.774 50.9667C149.976 50.7661 150.246 50.6496 150.53 50.6409C150.814 50.6322 151.091 50.732 151.304 50.92C151.517 51.1079 151.65 51.37 151.677 51.6529C151.704 51.9359 151.623 52.2184 151.449 52.4433L151.356 52.5484L150.573 53.3315C150.372 53.5321 150.101 53.6486 149.817 53.6572C149.533 53.6659 149.257 53.5661 149.043 53.3782C148.83 53.1902 148.697 52.9281 148.67 52.6452C148.643 52.3623 148.724 52.0797 148.898 51.8549L148.991 51.7497L149.774 50.9667ZM145.643 65.6286C145.94 65.6286 146.224 65.7465 146.434 65.9563C146.644 66.166 146.762 66.4506 146.762 66.7473C146.762 67.6373 146.408 68.4909 145.779 69.1202C145.149 69.7496 144.296 70.1032 143.406 70.1032C142.516 70.1032 141.662 69.7496 141.033 69.1202C140.403 68.4909 140.05 67.6373 140.05 66.7473C140.05 66.4733 140.151 66.2088 140.333 66.0041C140.515 65.7993 140.766 65.6685 141.038 65.6364L141.169 65.6286H145.643ZM143.406 52.205C144.814 52.205 146.187 52.6482 147.33 53.4719C148.473 54.2956 149.328 55.458 149.773 56.7944C150.219 58.1308 150.232 59.5734 149.812 60.9181C149.392 62.2627 148.56 63.441 147.433 64.2863C147.279 64.4021 147.097 64.476 146.906 64.501L146.762 64.51H140.05C139.808 64.51 139.572 64.4315 139.379 64.2863C138.252 63.441 137.419 62.2627 136.999 60.9181C136.579 59.5734 136.593 58.1308 137.038 56.7944C137.484 55.458 138.339 54.2956 139.481 53.4719C140.624 52.6482 141.997 52.205 143.406 52.205Z" fill="#125CFA"/>
</svg>
