<svg width="75" height="68" viewBox="0 0 75 68" fill="none" xmlns="http://www.w3.org/2000/svg">
<g clip-path="url(#clip0_412_2078)">
<path d="M48.9195 49.7276L48.9841 43.4767C48.9895 42.9643 50.0607 42.4142 50.5828 42.2793C55.632 40.9849 60.8642 40.9525 65.9456 42.1391C66.5647 42.2847 67.8404 42.7539 67.8727 43.3472L68.0288 46.5617C71.4362 46.0385 74.4183 48.2121 74.8597 51.6584C75.0589 53.2063 75.0374 54.8783 74.8221 56.4262C74.3484 59.8133 71.3555 61.7872 68.0019 61.1886C67.862 65.1905 63.7763 66.1128 60.0837 66.0912L52.8383 66.048L38.7943 67.4719L26.419 67.9357C21.3644 68.1245 16.4875 67.7739 11.4814 67.2184C9.16139 66.9649 6.99747 66.9326 4.67744 66.1721C6.20618 66.0157 7.51961 66.1883 9.0645 66.2853C7.53037 65.5842 6.06622 64.9478 4.69897 63.9015C0.656406 60.8057 -0.953082 55.6442 0.548749 50.7631C1.44231 47.8399 3.01412 45.3536 5.26417 43.2663C11.4437 37.5223 19.8626 36.5353 27.4525 40.1867C25.8538 45.812 21.9458 49.4525 16.1161 49.5173L14.3075 49.5388C14.3182 49.0319 14.1836 48.4655 13.8983 48.2336C13.6615 48.0449 13.0209 48.115 12.7356 48.3739C11.9013 49.1235 12.8594 50.9897 14.6412 51.8904C19.8572 54.5277 28.2223 54.3497 34.1811 53.6918C36.9372 53.3843 39.5317 52.7749 42.1155 51.8742L41.9594 50.9735L42.9983 49.6629C45.4637 49.6737 47.8537 50.542 49.6085 52.338C52.4238 55.2235 52.413 59.727 49.8561 62.7904C48.4943 64.4192 46.761 65.2444 44.8985 66.1505L48.5965 65.7352L52.5637 65.4386L50.7443 64.2035C53.608 61.701 54.7331 57.8177 53.3174 54.2365C52.5207 52.214 50.9435 50.7092 48.9195 49.7222V49.7276ZM66.71 44.14C65.8649 43.6007 65.1274 43.3796 64.2985 43.2447C60.2613 42.576 56.2134 42.5598 52.1977 43.3418C51.5518 43.4659 50.9166 43.6708 50.5398 44.194C55.885 45.8228 61.4832 45.8444 66.7154 44.1454L66.71 44.14ZM72.179 55.5956L72.2006 52.2625C72.206 51.2539 71.5654 50.2777 70.9087 49.8247C70.0097 49.2044 68.8955 49.075 68.0073 49.3123V58.4056C68.9332 58.6375 70.0151 58.5944 70.9356 57.9579C71.5008 57.5642 72.1683 56.5988 72.179 55.5956Z" fill="#125CFA"/>
<path d="M40.2746 51.539C33.9282 53.1786 24.718 53.6424 18.4631 52.1916C17.2789 51.9165 16.3153 51.5066 15.2549 50.8001L17.3112 50.4765C20.8208 49.921 23.9913 48.3137 26.1122 45.3743C28.0285 42.7208 28.9436 39.4686 28.6529 36.1085C28.3461 32.565 27.0058 28.9784 24.5189 26.4273C22.4841 24.3455 20.557 22.4308 19.3836 19.7179C17.6072 15.6136 17.8118 11.0993 20.0564 7.21063C24.3358 -0.221473 33.9551 -2.20085 41.039 2.64242C42.7777 2.40511 44.441 2.81501 45.8782 3.89909C49.5386 6.65511 51.3849 11.4283 50.3137 15.8832C49.7109 18.3912 48.2736 20.2896 46.0989 21.4708C45.4368 22.3391 45.5122 23.5958 45.7867 24.599C46.6803 27.862 47.2455 31.0333 47.154 34.4581C46.9925 40.7899 44.5217 46.8306 40.2639 51.539H40.2746ZM49.1564 15.2899C47.913 16.2608 46.7503 16.6868 45.4099 16.1529C42.7238 14.7668 41.5988 11.2503 43.2352 8.69921C44.2418 7.12973 46.0074 6.75219 47.6438 7.62053C46.5941 5.86768 44.9308 4.62719 42.9176 4.38449C40.6568 4.10943 38.7136 5.48474 37.7554 7.51806C35.8068 11.8759 37.3086 17.4905 41.6634 19.5453C43.6013 20.4622 45.7975 20.0793 47.3478 18.5853C48.2628 17.7062 48.8657 16.5466 49.1564 15.2953V15.2899ZM35.7368 19.5993C34.4126 21.0177 32.8731 21.3144 31.409 20.4137C29.1105 18.8604 28.2923 15.7376 29.6864 13.3214C30.6446 11.6602 32.4048 11.288 34.1919 12.1618C33.2499 10.5977 31.7589 9.6107 30.074 9.20619C27.6517 8.6291 25.2832 9.83183 24.0667 11.973C21.5152 16.4657 24.0183 22.8839 28.6152 24.367C31.915 25.4349 35.1447 22.7706 35.7476 19.5993H35.7368Z" fill="#125CFA"/>
<path d="M59.8201 37.6139C59.9439 37.8835 59.5886 38.6009 59.3841 38.7896C59.0988 39.0539 58.5228 39.1402 58.2321 38.8004C58.5497 37.9429 58.5228 37.2633 58.0437 36.5999C57.021 35.1653 57.2955 33.3908 58.7812 32.4901L60.2184 31.6164C60.4983 31.4492 60.8913 30.8721 60.9236 30.5539C61.0258 29.3889 58.5659 28.0136 60.1807 25.7754C60.6114 25.1821 61.3811 24.4486 62.0378 24.0549C62.2424 23.9308 62.7484 24.5726 62.6353 24.756C62.1563 25.5273 61.1927 25.8509 60.9397 26.8918C60.7675 27.5983 61.1281 28.3372 61.6072 28.8604C62.5061 29.842 62.603 31.3521 61.4942 32.2151L59.8685 33.1913C58.8189 33.8223 58.5389 34.8309 59.0611 35.9635L59.8201 37.6139Z" fill="#125CFA"/>
<path d="M64.374 35.2622C63.615 36.6322 65.2084 37.932 64.7616 38.7518C64.627 38.9999 63.7765 39.0916 63.6796 38.8219L62.9045 36.6322C62.3662 35.1112 63.6581 33.8761 64.9769 33.2505C65.4614 33.0186 65.9943 32.5548 66.1342 32.1718C66.3119 31.6918 66.0481 30.7965 65.7521 30.3758C64.6539 28.8063 64.8908 26.951 66.3442 25.7753C66.4841 25.662 66.9255 25.6027 67.0709 25.7051C67.2431 25.8238 67.2377 26.347 67.087 26.5088C65.0792 28.596 67.9752 30.4352 67.5338 32.3121C67.1516 33.9355 64.9877 34.135 64.3687 35.2569L64.374 35.2622Z" fill="#125CFA"/>
</g>
<defs>
<clipPath id="clip0_412_2078">
<rect width="75" height="68" fill="white"/>
</clipPath>
</defs>
</svg>
