<svg width="105" height="74" viewBox="0 0 105 74" fill="none" xmlns="http://www.w3.org/2000/svg">
<g clip-path="url(#clip0_412_2089)">
<path d="M28.5647 66.4946C26.6905 64.4444 24.5319 62.785 22.1955 64.414C20.1131 65.8704 19.661 68.6869 16.6237 71.3613C13.495 74.122 9.17778 74.6548 5.55131 72.4981C1.16298 69.8896 -1.42736 63.7441 0.837918 62.0187C2.67655 60.613 4.43899 62.1963 6.07446 63.6629C7.49152 64.9367 9.37586 65.0635 10.7421 63.7086C13.3629 61.1103 13.1852 55.2947 18.6706 51.3364C21.4438 49.3318 24.8772 49.0629 28.011 50.4635C32.1454 52.3107 33.1968 55.5484 36.2696 57.1926C38.5501 58.4156 41.0897 58.0705 43.0553 56.406C44.5943 55.1069 45.6558 53.4474 46.5446 51.5901C48.6575 47.1751 49.5057 42.4454 49.6327 37.528C49.7495 33.0064 49.3432 28.6979 47.8449 24.4351C46.4583 22.4103 45.4425 20.3652 44.7365 17.9648C43.1823 12.5094 45.0158 6.52124 49.4956 2.98414C54.3563 -0.857447 61.0251 -0.943718 66.1296 2.45129C67.1403 3.13638 67.9327 3.91282 68.7047 4.8415C69.8881 5.13076 70.9192 5.63823 71.8588 6.47049C75.7291 10.444 76.1405 16.8027 72.6511 21.101C71.3001 22.7655 69.6189 23.7196 67.5924 24.0291C66.6629 24.6279 66.5359 25.8865 66.5867 26.9319C66.8458 32.6359 66.7899 38.1826 65.9823 43.8206L64.4484 45.4801L54.2293 58.3852C53.8534 58.8571 53.9804 59.5676 54.3004 59.9736C54.6407 60.4049 55.3264 60.4455 55.8292 60.2375L55.1638 59.9279C54.9962 59.8467 55.0521 59.3342 55.1283 59.1413L59.9331 52.5898C64.1284 47.0634 68.3898 41.74 73.0879 36.5739L75.4904 38.3704L75.7037 39.3904C72.0518 43.8409 68.3136 48.053 64.2707 52.1534C62.2136 59.8873 57.9827 67.8496 50.8568 71.7825C45.864 74.5381 40.1348 74.462 35.1472 71.7521C32.633 70.3819 30.5201 68.6108 28.5748 66.4845L28.5647 66.4946ZM68.4457 18.0308C66.8102 15.9856 67.2013 12.9763 69.1212 11.2864C70.4113 10.1548 72.062 10.4643 73.3267 11.6467C73.0016 9.96699 72.1432 8.59681 70.8989 7.58694C68.9942 6.03914 66.2972 6.12541 64.5246 7.97262C61.6702 10.9413 61.1521 15.7116 63.2345 19.269C64.2859 21.0655 66.0839 22.3189 68.1663 22.1413C70.2487 21.9637 71.9401 20.4768 72.8238 18.6194C71.3255 19.609 69.6138 19.4872 68.4457 18.0308ZM55.0115 19.9693C53.1424 17.9749 53.3709 14.7017 55.4076 12.9814C56.7536 11.8447 58.4449 12.1644 59.6842 13.3113C59.2728 12.1441 58.6684 11.1342 57.805 10.2461C55.7073 8.08426 52.3653 8.00307 50.1609 10.2461C46.9205 13.5447 47.1033 19.1472 50.42 22.3595C52.3145 24.1915 55.0166 24.4148 57.1193 22.9584C58.1808 22.2225 59.0087 21.2329 59.5319 20.0302C58.1605 21.2228 56.3473 21.4055 55.0115 19.9744V19.9693Z" fill="#125CFA"/>
<path d="M80.4479 67.2557L77.9947 73.3454L83.3887 73.4215C84.0997 73.4317 84.7956 73.5027 85.5524 73.7412L73.8044 73.9138L76.344 67.2506L73.4286 67.2912C73.134 67.2912 72.621 66.8649 72.7124 66.5807L73.4032 64.4341C73.9009 64.7183 74.0381 64.8249 74.3479 65.2004H94.004C94.4814 65.2004 94.8725 64.8452 94.8877 64.3428L73.4133 64.3529L77.8271 47.1901L80.1533 37.4618C80.2345 36.929 80.6967 36.4926 81.2859 36.4926L102.257 36.4824L104.111 36.457L104.777 36.5788C104.965 36.6144 105.046 37.1523 104.99 37.3756L99.8906 57.7964L104.756 73.249C104.761 73.4012 104.792 73.7361 104.69 73.7717L104.091 74.0051L96.5283 73.8173C97.9098 73.0714 99.2608 73.6347 100.83 73.4672L98.1434 64.8553L97.4069 67.2354L93.9024 67.276L93.5062 73.9188L89.6309 73.9341L89.8848 67.276L80.4631 67.2557H80.4479ZM102.293 37.3299L95.2839 64.3123L96.2134 64.5508L103.223 37.5684L102.293 37.3299ZM89.5699 54.2187C87.7516 55.3858 85.7961 55.2387 85.3898 54.1222C85.2628 53.7772 85.4051 53.0312 85.6641 52.7318C87.3351 50.778 91.2714 51.0571 91.0835 46.911C91.0428 46.028 92.0993 45.5053 92.8764 45.4292C93.9786 45.3226 94.9944 44.9978 95.7613 44.262C96.3403 43.7038 96.5841 42.8817 96.3048 42.2017C96.0661 41.6181 95.2839 40.8721 94.5322 41.0142L92.2568 41.4506C91.0581 41.679 89.9407 42.1966 89.0874 43.0339C88.2341 43.8712 88.1427 44.9166 88.4119 46.0889C88.5338 46.6218 87.7821 47.2358 87.2945 47.4236L84.6076 48.474C82.0579 49.692 80.2092 52.0568 79.9349 54.8733C79.6403 57.9181 81.8751 60.3134 84.8921 60.42C89.0315 60.5722 93.4554 56.7662 94.1309 52.61C94.0243 52.2091 92.9983 52.0213 92.6428 52.2497L89.5699 54.2187Z" fill="#125CFA"/>
<path d="M79.879 33.752C79.4422 32.6914 78.7718 32.1636 77.6696 31.986C76.7859 27.8856 79.2898 24.7139 83.2617 23.4655L85.8266 22.6586C87.4062 22.1613 87.9141 20.6185 88.5541 20.7657C89.4836 20.9788 89.4633 24.6631 87.5332 27.1954C87.3402 27.4441 86.9186 28.0175 86.8882 28.3119C86.4869 31.8337 83.4801 34.5386 79.8892 33.7571L79.879 33.752Z" fill="#125CFA"/>
<path d="M76.288 38.5533C76.0544 38.5939 75.8715 38.0712 75.7192 37.9392L73.5859 36.0971C74.5205 34.7269 75.5922 33.514 76.8213 32.3164L79.2745 34.7624L76.2931 38.5482L76.288 38.5533Z" fill="#125CFA"/>
</g>
<defs>
<clipPath id="clip0_412_2089">
<rect width="105" height="74" fill="white"/>
</clipPath>
</defs>
</svg>
