<svg width="122" height="37" viewBox="0 0 122 37" fill="none" xmlns="http://www.w3.org/2000/svg">
<g clip-path="url(#clip0_412_2083)">
<path d="M44.398 33.3231L41.8384 23.885C44.4606 25.0533 46.9224 25.7174 49.709 25.0373C52.4956 24.3571 54.4838 22.5087 55.4505 19.9002C55.8379 18.856 56.018 17.8077 55.8927 16.6875C55.8497 16.3154 55.7049 16.0153 55.4896 15.7073C54.5268 14.327 53.881 12.7586 53.6775 11.0703C53.1257 6.44527 55.8223 2.11233 60.1 0.576001C63.1332 -0.512234 66.4951 -0.0641373 69.0038 2.03632C70.4872 2.08033 71.8452 2.72447 72.8628 3.83671C75.2189 6.41326 75.4459 10.4781 73.1642 13.1827C72.4832 13.9949 71.6378 14.507 70.6555 14.8391C70.2641 15.1872 70.0958 15.7313 70.0058 16.2634C69.6731 24.3932 63.822 31.2146 56.198 33.3271C49.6346 33.3471 44.398 33.3271 44.398 33.3271V33.3231ZM70.9529 11.3263C69.407 10.2981 69.0743 8.05762 70.2758 6.65332C71.1016 5.68511 72.4167 5.58508 73.4029 6.42927C73.0233 5.35303 72.3032 4.48085 71.3521 3.91672C69.6888 2.93251 67.5988 3.44062 66.4912 5.06497C65.137 7.0454 65.2388 9.74198 66.6869 11.6544C67.591 12.8467 68.9882 13.5108 70.4637 13.3388C71.7591 13.1827 72.8472 12.3545 73.4616 11.1783C72.6867 11.7504 71.7904 11.8864 70.9529 11.3303V11.3263ZM61.8651 13.9789C60.3975 13.0427 59.9826 10.9863 60.9454 9.56595C61.7125 8.4337 63.1215 8.19765 64.1938 9.04183C63.7594 7.9896 62.9884 7.14542 61.9786 6.66132C60.2331 5.81713 58.2058 6.44527 57.1373 8.08162C56.1432 9.60595 56.0649 11.5104 56.8242 13.1707C57.3369 14.283 58.1353 15.1872 59.2351 15.6673C61.1841 16.5154 63.4306 15.7673 64.3895 13.7669C63.6655 14.343 62.7222 14.527 61.8612 13.9829L61.8651 13.9789Z" fill="#125CFA"/>
<path d="M44.1785 34.0118L58.3581 34.0438C59.1017 34.0438 59.5557 34.948 59.5322 35.5361C59.5048 36.1602 58.996 36.9884 58.2172 36.9884L36.6562 36.9444L9.51425 36.7724C8.2775 36.7644 7.77263 35.8322 7.47518 34.7879L0.0664153 8.93035C-0.246686 7.83411 0.59086 6.70587 1.66323 6.71787L11.1267 6.79789L33.9753 7.10195C35.1612 7.11795 35.8187 8.22619 36.1161 9.21041L38.9301 18.4524L43.6971 34.8079C43.8928 35.4761 43.5406 36.0842 43.1687 36.5683C43.6736 36.4923 44.1707 36.1122 44.3703 35.7001C44.6325 35.156 44.4994 34.6199 44.1785 34.0118ZM21.4043 24.8738C22.598 25.1138 23.5842 24.3057 23.6821 23.1494C23.8073 21.6891 22.8837 20.3968 21.5178 19.9927C20.8994 19.8087 20.2497 19.9407 19.737 20.3728C19.3926 20.6649 19.0678 21.281 19.0521 21.8771C19.013 23.2774 20.0149 24.5897 21.4043 24.8698V24.8738Z" fill="#125CFA"/>
<path d="M78.021 34.0231C77.7353 34.5912 77.5748 35.1074 77.8018 35.6555C77.9818 36.0836 78.4358 36.5077 78.9759 36.5717C78.6628 36.0876 78.3223 35.5234 78.5141 34.9073L83.5041 18.6478L86.4277 9.26977C86.7017 8.38958 87.5627 7.70943 88.502 7.70143L105.1 7.60941L120.176 7.52539C120.728 7.52539 121.241 7.74944 121.538 8.10152C121.836 8.45359 122.125 9.10973 121.945 9.64985L113.374 35.7475C113.131 36.4877 112.2 36.9998 111.456 36.9998H64.3697C63.4774 36.9998 62.906 36.4396 62.8277 35.6475C62.7494 34.8553 63.3443 34.0311 64.2327 34.0311H78.021V34.0231ZM100.979 25.0372C102.255 24.6051 103.116 23.4288 103.108 22.0845C103.104 21.4764 102.776 20.8843 102.415 20.5802C101.93 20.1721 101.308 20.0441 100.709 20.2041C99.4801 20.5362 98.6074 21.6124 98.4587 22.8967C98.3765 23.6169 98.623 24.265 99.1201 24.6811C99.6171 25.0972 100.263 25.2772 100.979 25.0332V25.0372Z" fill="#125CFA"/>
</g>
<defs>
<clipPath id="clip0_412_2083">
<rect width="122" height="37" fill="white"/>
</clipPath>
</defs>
</svg>
