<svg width="114" height="42" viewBox="0 0 114 42" fill="none" xmlns="http://www.w3.org/2000/svg">
<g clip-path="url(#clip0_412_2087)">
<path d="M112.657 17.2713L81.3676 17.2608C80.1835 17.2608 79.3852 17.9655 79.0311 19.0174L72.0425 39.665C71.7676 40.4749 71.8786 41.0744 72.4337 41.7161C71.7676 41.695 71.0592 41.3532 70.8848 40.7799C70.7103 40.1962 70.9641 39.5966 71.4134 38.8603L54.5183 38.8288C61.4275 36.0098 66.8725 30.9347 70.2399 24.3975C70.7474 23.414 71.7148 23.3772 72.6081 23.3825C74.2311 23.393 75.6742 22.5831 76.8848 21.5996L77.8522 18.7544C78.1905 17.7657 78.8302 17.0504 79.8293 16.6244C81.0187 12.233 78.8249 5.95349 74.1306 5.04365C73.1844 3.67625 72.0214 2.66123 70.557 1.83027C65.535 -1.02021 59.3394 -0.546886 54.9465 3.30285C51.7218 6.1323 50.1835 10.408 50.6487 14.6575C50.8654 16.656 51.4152 18.4704 52.2187 20.269C52.5835 21.0842 52.7051 21.9257 52.2399 22.7566C51.3253 24.3712 49.8716 25.6019 48.1694 26.3697C45.3835 27.6267 42.3015 26.8641 40.335 24.5711L38.5007 22.0098C37.1526 20.1376 35.9421 18.2758 34.187 16.8085C30.2592 13.5215 24.8936 13.4847 20.8654 16.656C15.5315 20.8528 14.7967 26.2014 12.1799 29.1729C10.6258 30.94 8.25748 31.0031 6.58699 29.3675C5.01166 27.8213 3.11387 25.8964 1.05748 27.3847C0.364967 27.8844 -0.0685129 28.8363 0.0107822 29.8408C0.470694 35.3735 5.09096 40.1909 10.631 40.1646L12.7932 40.1541H12.8037C16.7421 38.9655 19.5491 36.3464 21.0663 34.0271C21.8117 32.8859 22.5412 31.7288 23.5139 30.8243C25.031 29.4148 27.0557 29.4937 28.6099 30.7717L31.528 34.0692C33.3465 36.1308 36.6029 38.9445 41.5509 40.3434C41.5509 40.3434 41.5544 40.3452 41.5615 40.3487H41.572L44.0672 40.3855L51.9914 40.3645C52.1606 41.5688 52.6892 42.0001 53.9209 42.0001L104.601 41.9895C105.875 41.9895 106.573 41.511 106.959 40.3487L113.937 19.3329C114.206 18.5125 113.593 17.2713 112.657 17.2713ZM69.9174 8.1571C71.8205 6.18489 74.7544 6.23223 76.5782 8.10976C77.7729 9.3299 78.4231 10.8183 78.6346 12.4433C77.5562 11.0076 75.7958 10.6131 74.3791 11.6492C72.3068 13.1586 71.8416 16.1721 73.4328 18.2548C74.4266 19.5485 75.7905 19.7589 77.3024 19.1856C76.2822 20.5004 74.8284 21.4734 73.1685 21.6207C71.165 21.7995 69.5103 20.553 68.5059 18.8491C66.661 15.4148 67.2055 10.9708 69.9174 8.1571ZM57.2566 8.71983C59.054 7.57332 61.2055 7.64169 62.8443 8.97227C64.0443 9.95048 65.0117 11.2337 65.313 12.8851C63.965 11.6808 62.3315 11.4862 61.0099 12.6274C59.0698 14.3051 58.8055 17.3449 60.624 19.2856C61.6813 20.4163 63.0927 20.5004 64.483 19.7379C63.6584 21.2683 61.9773 22.2991 60.3121 22.4411C58.372 22.6094 56.6381 21.6575 55.5121 20.0955C52.9641 16.5718 53.4874 11.1285 57.2566 8.71983ZM93.9121 33.3171C93.2249 33.7116 92.4108 33.6432 91.8187 33.3539C91.2637 33.0805 90.7615 32.3862 90.6504 31.65C90.3755 29.7882 91.3694 28.0842 93.0399 27.2375C93.5421 26.985 94.3773 26.9693 94.9271 27.2322C95.3553 27.4426 95.8786 28.0369 96.0372 28.6838C96.4548 30.4403 95.5509 32.3757 93.9121 33.3171Z" fill="#125CFA"/>
</g>
<defs>
<clipPath id="clip0_412_2087">
<rect width="114" height="42" fill="white"/>
</clipPath>
</defs>
</svg>
