<svg width="124" height="71" viewBox="0 0 124 71" fill="none" xmlns="http://www.w3.org/2000/svg">
<path d="M25.5285 0.147366C11.4511 -1.60949 -2.83024 12.6557 0.484327 26.2145C2.29594 33.6254 13.2881 35.2813 19.675 38.3478C20.8745 50.3978 27.1637 62.1439 38.4677 67.4861C42.9245 69.6055 47.8768 70.4667 52.7881 69.9746C70.0545 68.3199 69.4489 55.4549 80.5042 50.4864C88.9665 46.6836 92.2127 63.6983 102.416 68.924L103.081 69.2605C111.259 71.1599 127.064 67.7959 122.742 57.0399C119.938 56.6194 116.098 61.2997 112.007 59.3898C105.837 56.5095 103.79 48.0395 100.834 42.424C94.3687 30.1377 78.4223 25.3156 67.9049 35.5866C64.3038 38.3485 56.1587 54.1856 50.2081 50.0666C29.3068 35.5964 54.3621 11.7528 25.5285 0.147366Z" fill="#050505"/>
<path d="M29.2891 11.0312C21.5757 11.1712 17.8828 16.9391 20.287 23.8793C22.6378 22.4961 24.2951 21.2691 27.0061 21.0054C30.4912 22.3281 29.7456 25.6225 29.1628 28.7327C27.5439 30.2942 28.3612 29.8464 25.6053 30.0768C24.6416 29.2111 23.935 28.7229 22.8736 27.9756L22.5336 28.4033C31.7115 38.507 43.3373 20.4235 29.2891 11.0312Z" fill="#FBFAFB"/>
<path d="M11.2289 12.1445C6.67316 12.1393 1.68633 15.7292 1.46753 20.369C1.92532 22.0315 1.9911 22.0608 3.36447 23.1954C4.02152 22.9903 4.68249 22.797 5.3467 22.6154C7.97231 21.915 8.06673 22.0888 9.95259 23.1771C11.2862 25.1423 11.2426 25.8414 11.3526 28.1978L11.382 28.906C10.6455 29.6617 10.1948 30.4344 9.61721 31.3118L10.7718 31.9647C12.7762 31.6203 13.962 30.9317 15.2872 29.441C20.9376 23.0847 16.4521 16.5305 11.2289 12.1445Z" fill="#FBFAFB"/>
</svg>
