<svg width="131" height="82" viewBox="0 0 131 82" fill="none" xmlns="http://www.w3.org/2000/svg">
<path d="M62.0913 0.326486C77.0922 -1.24883 97.2713 2.40451 83.258 21.7417C83.1718 21.8615 84.4751 30.6358 84.5748 31.6041C97.9808 27.8041 111.497 25.5774 125.44 26.4327C125.323 27.8176 124.925 31.8309 125.211 32.952C126.443 37.787 127.658 35.0313 130.476 36.9842C131.646 42.054 123.593 68.2705 121.745 75.0247C96.6176 74.4985 89.5302 74.0981 65.5455 81.4417C61.6955 80.9236 52.1858 77.6195 46.9867 76.6572C33.5578 74.1714 22.2333 74.7636 8.71409 75.0651C6.94963 68.4092 -2.68653 40.5069 0.725241 36.2561C2.6553 35.8213 3.11172 35.7917 4.65941 34.5926C5.83481 32.3524 5.02293 29.0692 4.6621 26.4448C23.0478 25.1649 40.0562 29.2166 57.1891 35.4115C54.3495 21.5169 44.8217 8.72461 62.0913 0.326486Z" fill="#050505"/>
<path d="M64.751 43.2501C66.0678 42.4244 67.3947 41.6156 68.7316 40.8229C80.2238 34.1306 110.185 25.9229 122.153 29.0863C123.161 30.8528 122.569 33.9092 122.376 36.1393C93.8534 40.374 91.6628 40.1694 64.716 50.4269C60.6001 48.7526 57.4394 46.929 52.8536 45.2716C37.4845 39.7166 24.2683 38.0174 8.32424 36.2039L7.01758 28.7997C24.2811 28.2768 51.0124 31.8427 64.751 43.2501Z" fill="#FBFAFB"/>
<path d="M59.5654 9.41211L60.9798 9.96457C60.8257 12.7397 60.926 17.3755 63.7682 18.7914C65.6074 18.286 66.7774 17.8418 68.5351 17.1575L69.4143 17.7396C70.1804 20.471 68.6866 23.8733 66.8636 25.9183C54.9446 29.7042 50.5237 16.3116 59.5654 9.41211Z" fill="#FBFAFB"/>
<path d="M75.217 2.34961L76.7075 2.84958C78.9291 5.84141 75.5644 8.28281 79.4999 11.9348C81.3176 12.673 81.7726 12.4442 83.6906 12.0122L84.2911 11.8735L84.9333 12.3695C85.515 15.4226 83.8205 17.6574 81.875 19.7697C81.0671 19.7986 80.2586 19.8107 79.4494 19.8053C70.2845 19.7084 68.3565 8.88844 75.217 2.34961Z" fill="#FBFAFB"/>
</svg>
