<svg width="106" height="117" viewBox="0 0 106 117" fill="none" xmlns="http://www.w3.org/2000/svg">
<path d="M58.2036 28.6952C62.9996 28.2522 75.644 29.3039 79.422 32.1475C88.4926 38.9749 82.8551 48.3462 78.0456 55.4633C86.7276 79.7909 84.5386 116.577 51.3605 116.603C34.3234 116.616 32.498 100.349 18.4072 95.6063C13.9246 96.9399 12.3856 97.5652 9.17409 100.926C6.75068 104.921 5.33633 109.608 3.78324 114.041C-3.81455 101.632 0.217839 85.2842 14.2033 79.0365C26.9845 73.3268 37.6242 87.9834 46.7731 93.3977C51.4555 96.1688 58.7296 89.557 59.9904 85.1025C66.084 70.2347 50.6385 62.3254 46.6736 52.1214C44.9721 47.656 45.0961 42.7007 47.0192 38.3258C49.4272 32.9474 52.938 30.6849 58.2036 28.6952Z" fill="#050505"/>
<path d="M54.5448 39.7056C58.7442 38.0434 59.7403 38.81 63.6147 40.8407C73.9179 57.2321 52.4611 62.4192 49.8784 48.248C49.3396 45.2927 52.4592 41.7621 54.5448 39.7056Z" fill="#FBFAFB"/>
<path d="M54.5447 39.7056C58.7441 38.0434 59.7403 38.81 63.6146 40.8407L62.6056 42.0702C64.0899 44.2487 63.5523 47.2143 61.3974 48.7327C59.2425 50.2512 56.268 49.7613 54.7143 47.6323C53.1605 45.5026 53.6031 42.5216 55.7086 40.9345L54.5447 39.7056Z" fill="#050505"/>
<path d="M54.5444 39.7056C58.7438 38.0434 59.74 38.81 63.6144 40.8407L62.6053 42.0702C61.8615 40.9794 60.7035 40.2404 59.4002 40.026C58.097 39.8115 56.7623 40.1396 55.7083 40.9345L54.5444 39.7056Z" fill="#A1A3A5"/>
<path d="M72.8997 32.3984L73.3802 33.1027C70.879 37.3434 70.4962 41.2509 76.3489 42.7032C78.4749 42.232 79.8077 40.4792 81.3345 38.8882L82.0384 39.0731C82.6011 42.709 82.3929 43.4133 81.4661 47.0216C73.5709 57.4927 59.3696 40.6673 72.8997 32.3984Z" fill="#FBFAFB"/>
<path d="M87.3943 0C94.5412 0.89565 92.0799 4.90261 94.9896 8.21555C97.8228 7.67174 102.016 6.74015 104.45 8.14302C107.97 12.3272 103.359 17.3865 99.8107 19.8366C95.7263 22.2757 91.5725 22.9312 86.9954 23.7921C83.9689 16.1852 79.1208 5.74307 87.3943 0Z" fill="#050505"/>
</svg>
