<svg width="114" height="104" viewBox="0 0 114 104" fill="none" xmlns="http://www.w3.org/2000/svg">
<g clip-path="url(#clip0_249_2576)">
<path d="M74.3583 76.0539L74.4564 66.4936C74.4646 65.71 76.0928 64.8686 76.8865 64.6624C84.5612 62.6827 92.5141 62.6332 100.238 64.4479C101.179 64.6706 103.118 65.3883 103.167 66.2956L103.404 71.2119C108.584 70.4117 113.116 73.736 113.787 79.0069C114.09 81.3743 114.057 83.9314 113.73 86.2988C113.01 91.479 108.461 94.498 103.363 93.5824C103.151 99.703 96.9406 101.114 91.3278 101.081L80.3148 101.015L58.9679 103.192L40.1574 103.902C32.4745 104.19 25.0616 103.654 17.4524 102.804C13.9259 102.417 10.6367 102.367 7.11029 101.204C9.43398 100.965 11.4304 101.229 13.7786 101.377C11.4468 100.305 9.22125 99.3318 7.14302 97.7315C0.998323 92.9968 -1.4481 85.1027 0.834684 77.6376C2.1929 73.1668 4.58205 69.3641 8.00213 66.1719C17.3951 57.387 30.1917 55.8775 41.7284 61.4619C39.2983 70.0653 33.3582 75.6332 24.4971 75.7322L21.7479 75.7652C21.7643 74.9898 21.5597 74.1237 21.1261 73.769C20.7661 73.4803 19.7924 73.5875 19.3588 73.9834C18.0906 75.13 19.5469 77.9841 22.2552 79.3616C30.1836 83.3952 42.8984 83.123 51.9559 82.1167C56.1451 81.6465 60.0888 80.7144 64.0162 79.3369L63.7789 77.9593L65.358 75.9549C69.1054 75.9714 72.7382 77.2994 75.4056 80.0462C79.6848 84.4593 79.6684 91.347 75.7819 96.0323C73.7119 98.5234 71.0773 99.7855 68.2463 101.171L73.8673 100.536L79.8975 100.082L77.132 98.1935C81.4848 94.366 83.1948 88.427 81.043 82.9498C79.832 79.8565 77.4347 77.5551 74.3583 76.0456V76.0539ZM101.4 67.5082C100.115 66.6833 98.9943 66.3451 97.7343 66.1389C91.5978 65.116 85.4449 65.0913 79.3411 66.2874C78.3593 66.4771 77.3938 66.7905 76.821 67.5907C84.9458 70.0818 93.4551 70.1148 101.408 67.5164L101.4 67.5082ZM109.713 85.0285L109.745 79.9308C109.754 78.3883 108.78 76.8952 107.782 76.2023C106.415 75.2537 104.722 75.0558 103.372 75.4187V89.3261C104.779 89.6808 106.424 89.6148 107.823 88.6414C108.682 88.0393 109.696 86.5627 109.713 85.0285Z" fill="black"/>
<path d="M61.218 78.8258C51.5714 81.3334 37.572 82.0428 28.0645 79.8239C26.2644 79.4032 24.7998 78.7763 23.188 77.6958L26.3135 77.2008C31.6482 76.3512 36.4674 73.8931 39.6911 69.3975C42.6039 65.3392 43.9948 60.3652 43.553 55.2262C43.0866 49.8068 41.0493 44.3214 37.2692 40.4197C34.1764 37.2357 31.2473 34.3074 29.4636 30.1583C26.7635 23.881 27.0744 16.9769 30.4863 11.0295C36.991 -0.337229 51.6123 -3.36451 62.3798 4.04285C65.0226 3.6799 67.5509 4.30681 69.7355 5.9648C75.2992 10.1799 78.1057 17.48 76.4775 24.2935C75.5611 28.1291 73.3765 31.0327 70.0709 32.8392C69.0645 34.1672 69.1791 36.0892 69.5964 37.6234C70.9546 42.6139 71.8137 47.4642 71.6746 52.7021C71.4291 62.3861 67.6736 71.6247 61.2016 78.8258H61.218ZM74.7183 23.3861C72.8283 24.8709 71.061 25.5225 69.0236 24.7059C64.9408 22.586 63.2308 17.2078 65.7181 13.3062C67.2481 10.9058 69.9318 10.3284 72.4192 11.6564C70.8237 8.97559 68.2954 7.07838 65.2354 6.70719C61.7989 6.2865 58.8452 8.38993 57.3888 11.4997C54.4269 18.1647 56.7097 26.7516 63.329 29.8944C66.2745 31.2967 69.6127 30.711 71.9692 28.4261C73.3601 27.0815 74.2765 25.3081 74.7183 23.3944V23.3861ZM54.3206 29.9769C52.3078 32.1463 49.9677 32.6 47.7422 31.2224C44.2485 28.8468 43.0048 24.0708 45.124 20.3753C46.5804 17.8347 49.2559 17.2656 51.9723 18.6019C50.5405 16.2097 48.274 14.7002 45.7131 14.0816C42.0312 13.1989 38.4311 15.0384 36.5819 18.3132C32.7037 25.1843 36.5083 35.0003 43.4957 37.2687C48.5113 38.902 53.4205 34.8271 54.3369 29.9769H54.3206Z" fill="black"/>
<path d="M90.9268 57.5271C91.1149 57.9395 90.5749 59.0366 90.264 59.3253C89.8304 59.7295 88.9549 59.8615 88.5131 59.3418C88.9958 58.0303 88.9549 56.9909 88.2267 55.9763C86.6721 53.7822 87.0894 51.0683 89.3476 49.6908L91.5322 48.3545C91.9577 48.0988 92.555 47.2162 92.6041 46.7295C92.7595 44.9478 89.0204 42.8443 91.475 39.4211C92.1295 38.5138 93.2995 37.3919 94.2978 36.7898C94.6087 36.6001 95.3778 37.5817 95.206 37.8621C94.4778 39.0417 93.0132 39.5366 92.6286 41.1286C92.3668 42.2092 92.915 43.3393 93.6432 44.1394C95.0096 45.6407 95.1569 47.9503 93.4714 49.2701L91.0004 50.7631C89.4049 51.7282 88.9794 53.2707 89.7731 55.003L90.9268 57.5271Z" fill="black"/>
<path d="M97.8488 53.9299C96.6951 56.0251 99.117 58.013 98.4379 59.2668C98.2334 59.6463 96.9406 59.7865 96.7933 59.3741L95.6151 56.0251C94.7969 53.699 96.7606 51.81 98.7652 50.8531C99.5016 50.4984 100.312 49.7891 100.524 49.2034C100.794 48.4693 100.393 47.1 99.9434 46.4566C98.2743 44.0562 98.6343 41.2186 100.843 39.4204C101.056 39.2472 101.727 39.1564 101.948 39.3132C102.21 39.4946 102.202 40.2948 101.973 40.5422C98.9207 43.7345 103.323 46.5473 102.652 49.4179C102.071 51.9007 98.7816 52.2059 97.8406 53.9217L97.8488 53.9299Z" fill="black"/>
</g>
<defs>
<clipPath id="clip0_249_2576">
<rect width="114" height="104" fill="white"/>
</clipPath>
</defs>
</svg>
