<svg width="107" height="82" viewBox="0 0 107 82" fill="none" xmlns="http://www.w3.org/2000/svg">
<path d="M60.7975 0.0414914C67.1633 -0.481419 80.3228 4.02645 84.4262 8.58799C86.5187 10.8806 87.5582 13.9326 87.3204 17.0225C86.8516 23.6587 83.1083 26.6488 78.604 30.6168C77.3268 44.5282 77.2724 51.483 69.6565 63.6172C74.9965 64.3561 88.4753 66.1598 90.7173 71.395C89.3993 80.6036 60.4442 81.3833 53.1816 81.6895C44.9068 81.6529 17.1542 81.007 13.1255 72.9297C13.6214 64.3486 35.6401 63.6301 42.658 62.9415C54.0512 51.6588 54.7102 44.6532 48.8472 29.478C43.385 15.3512 46.1365 5.13409 60.7975 0.0414914Z" fill="#125CFA"/>
<path d="M57.944 10.6387C60.3286 10.7745 63.9157 10.985 64.8261 13.4087C62.1765 16.2759 58.1614 18.972 59.8123 22.7532C61.6194 24.2208 62.095 24.3179 64.3302 25.0472C65.4104 24.6975 66.2256 24.3009 67.3262 24.4835L66.2325 26.9996L65.9946 27.2C55.9942 35.864 44.9475 20.9495 57.944 10.6387Z" fill="#FBFAFB"/>
<path d="M75.044 6.63426C78.0333 6.59351 79.8812 6.65123 81.9737 9.01858C79.6842 10.6851 77.6596 12.6511 77.0618 15.4857C78.4205 22.3209 80.9886 18.5016 83.7468 21.9175L82.687 24.6577C72.3605 31.3727 64.6835 15.9733 75.044 6.63426Z" fill="#FBFAFB"/>
<path d="M10.2657 35.4902C14.2468 37.08 16.4208 42.3363 16.876 46.3348C14.0973 44.9182 10.0007 38.6487 10.2657 35.4902Z" fill="#125CFA"/>
<path d="M97.0493 37.657C98.2722 38.5371 97.8781 37.9565 98.1838 39.5001C96.8318 42.3978 93.8358 45.2881 91.6075 47.7016L90.9688 47.5223L90.5137 46.4738C91.8181 43.7431 95.0451 40.1106 97.0493 37.657Z" fill="#125CFA"/>
<path d="M103.796 53.5985C105.019 53.4613 104.842 53.5476 106.085 53.8606L105.895 54.6321C103.028 56.592 102.145 56.7373 98.7276 57.5896C97.4572 57.779 97.2805 57.6201 96.0645 57.2554L96.1528 56.5601C98.5374 54.8609 100.97 54.3869 103.796 53.5985Z" fill="#125CFA"/>
<path d="M0 50.8094C4.42275 50.4549 8.60771 52.0026 11.1893 55.6718C6.45408 55.4239 3.43086 53.8871 0 50.8094Z" fill="#125CFA"/>
</svg>
