<svg width="1352" height="358" viewBox="0 0 1352 358" fill="none" xmlns="http://www.w3.org/2000/svg">
<path opacity="0.2" d="M-14.9609 29H947.924C951.79 29 954.924 32.134 954.924 36V497.282C954.924 501.148 958.058 504.282 961.924 504.282H1102.16C1106.03 504.282 1109.16 501.148 1109.16 497.282V244.27C1109.16 240.404 1112.3 237.27 1116.16 237.27H1249.02C1252.89 237.27 1256.02 240.404 1256.02 244.27V497.282C1256.02 501.148 1259.15 504.282 1263.02 504.282H1405.25C1409.11 504.282 1412.25 501.148 1412.25 497.282V36C1412.25 32.134 1415.38 29 1419.25 29H1669.89" stroke="#0B0F1A" stroke-width="58" stroke-linecap="round"/>
</svg>
