<svg width="563" height="182" viewBox="0 0 563 182" fill="none" xmlns="http://www.w3.org/2000/svg">
<path d="M179.895 59.4684C179.895 63.3683 176.758 66.5306 172.89 66.5306H164.328V123.028C164.328 126.928 161.191 130.09 157.322 130.09H136.306C132.437 130.09 129.3 126.928 129.3 123.028V96.3486H122.295V123.028C122.295 126.928 119.158 130.09 115.29 130.09H94.2732C90.4047 130.09 87.2678 126.928 87.2678 123.028V122.667L87.9606 66.5306H78.7056C74.8371 66.5306 71.7002 63.3683 71.7002 59.4684C71.7002 55.5685 74.8371 52.4062 78.7056 52.4062H95.0516C98.9202 52.4062 102.057 55.5685 102.057 59.4684V59.8294L101.364 115.966H108.284V89.2864C108.284 85.3865 111.421 82.2243 115.29 82.2243H136.306C140.174 82.2243 143.311 85.3865 143.311 89.2864V115.966H150.317V59.4684C150.317 55.5685 153.454 52.4062 157.322 52.4062H172.89C176.758 52.4062 179.895 55.5685 179.895 59.4684Z" fill="#125CFA"/>
<path d="M424.306 75.9466C428.175 75.9466 431.312 72.7847 431.312 68.8844C431.312 64.9841 428.175 61.8223 424.306 61.8223C420.437 61.8223 417.301 64.9841 417.301 68.8844C417.301 72.7847 420.437 75.9466 424.306 75.9466Z" fill="#125CFA"/>
<path d="M330.917 59.0205V59.915C330.909 59.766 330.901 59.6169 330.901 59.4678C330.901 59.3187 330.909 59.1696 330.917 59.0205Z" fill="#125CFA"/>
<path d="M490.47 59.4684C490.47 63.3683 487.333 66.5306 483.464 66.5306H473.773C473.882 82.9619 474.124 122.408 474.124 123.028C474.124 126.928 470.987 130.09 467.118 130.09C463.25 130.09 460.113 126.928 460.113 123.028L459.77 66.5306H449.994C446.125 66.5306 442.988 63.3683 442.988 59.4684C442.988 55.5685 446.125 52.4062 449.994 52.4062H483.464C487.333 52.4062 490.47 55.5685 490.47 59.4684Z" fill="#125CFA"/>
<path d="M431.312 90.0711V123.028C431.312 126.928 428.175 130.09 424.307 130.09H390.836C386.968 130.09 383.831 126.928 383.831 123.028V77.9242L369.773 93.7748L369.711 93.8454L369.439 94.1515L369.408 94.1907C368.131 95.5247 366.349 96.3486 364.372 96.3486C362.394 96.3486 360.612 95.5247 359.335 94.1907L359.304 94.1515L359.032 93.8454L358.97 93.7748L344.904 77.932V123.028C344.912 126.928 341.775 130.09 337.907 130.09H308.686L308.569 130.082C308.492 130.09 308.406 130.09 308.328 130.09C306.001 130.09 303.938 128.944 302.661 127.179L302.521 126.975L279.396 93.5551L279.365 93.508L279.077 93.0843L279.038 93.0294C278.36 91.9465 277.971 90.6596 277.971 89.2864C277.971 85.3865 281.108 82.2243 284.977 82.2243H301.323V66.5306H271.744V123.028C271.744 126.928 268.607 130.09 264.739 130.09H235.16C231.292 130.09 228.155 126.928 228.155 123.028V66.5306H204.025V115.966H215.701C219.569 115.966 222.706 119.128 222.706 123.028C222.706 126.928 219.569 130.09 215.701 130.09H197.02C193.151 130.09 190.014 126.928 190.014 123.028V59.4684C190.014 55.5685 193.151 52.4062 197.02 52.4062H235.16C239.029 52.4062 242.166 55.5685 242.166 59.4684V115.966H257.733V59.4684C257.733 55.5685 260.87 52.4062 264.739 52.4062H308.328C312.197 52.4062 315.334 55.5685 315.334 59.4684V89.2864C315.334 93.1863 312.197 96.3486 308.328 96.3486H298.396L311.986 115.974H330.901L330.917 59.9157V58.9741C331.174 55.3017 334.201 52.4063 337.907 52.4063C340.055 52.4063 341.977 53.3871 343.262 54.9251H343.27L364.372 78.7089L385.435 54.98L385.497 54.9094L385.769 54.6034L385.8 54.5641C387.077 53.2302 388.859 52.4063 390.836 52.4063C394.705 52.4063 397.842 55.5685 397.842 59.4684C397.842 59.6332 397.834 59.798 397.826 59.9628L397.842 115.966H417.301V90.0711C417.301 86.1712 420.438 83.0089 424.307 83.0089C428.175 83.0089 431.312 86.1712 431.312 90.0711Z" fill="#125CFA"/>
</svg>
