<svg width="199" height="64" viewBox="0 0 199 64" fill="none" xmlns="http://www.w3.org/2000/svg">
<path d="M63.4327 20.9119C63.4327 22.2833 62.3266 23.3953 60.9625 23.3953H57.9434V43.2625C57.9434 44.6339 56.8373 45.7459 55.4732 45.7459H48.0627C46.6986 45.7459 45.5925 44.6339 45.5925 43.2625V33.8808H43.1224V43.2625C43.1224 44.6339 42.0163 45.7459 40.6522 45.7459H33.2417C31.8776 45.7459 30.7715 44.6339 30.7715 43.2625V43.1356L31.0158 23.3953H27.7524C26.3883 23.3953 25.2822 22.2833 25.2822 20.9119C25.2822 19.5405 26.3883 18.4285 27.7524 18.4285H33.5161C34.8802 18.4285 35.9863 19.5405 35.9863 20.9119V21.0389L35.742 40.7791H38.182V31.3974C38.182 30.026 39.2881 28.914 40.6522 28.914H48.0627C49.4268 28.914 50.5329 30.026 50.5329 31.3974V40.7791H53.0031V20.9119C53.0031 19.5405 54.1091 18.4285 55.4732 18.4285H60.9625C62.3266 18.4285 63.4327 19.5405 63.4327 20.9119Z" fill="#125CFA"/>
<path d="M149.614 26.7064C150.978 26.7064 152.084 25.5945 152.084 24.223C152.084 22.8514 150.978 21.7396 149.614 21.7396C148.25 21.7396 147.144 22.8514 147.144 24.223C147.144 25.5945 148.25 26.7064 149.614 26.7064Z" fill="#125CFA"/>
<path d="M116.684 20.7546V21.0692C116.681 21.0168 116.679 20.9643 116.679 20.9119C116.679 20.8595 116.681 20.8071 116.684 20.7546Z" fill="#125CFA"/>
<path d="M172.943 20.9119C172.943 22.2833 171.837 23.3953 170.473 23.3953H167.056C167.095 29.1734 167.18 43.0445 167.18 43.2625C167.18 44.6339 166.074 45.7459 164.71 45.7459C163.345 45.7459 162.239 44.6339 162.239 43.2625L162.119 23.3953H158.671C157.307 23.3953 156.201 22.2833 156.201 20.9119C156.201 19.5405 157.307 18.4285 158.671 18.4285H170.473C171.837 18.4285 172.943 19.5405 172.943 20.9119Z" fill="#125CFA"/>
<path d="M152.084 31.6733V43.2625C152.084 44.6339 150.978 45.7459 149.614 45.7459H137.812C136.448 45.7459 135.342 44.6339 135.342 43.2625V27.4019L130.385 32.9757L130.363 33.0006L130.267 33.1082L130.256 33.122C129.806 33.591 129.177 33.8808 128.48 33.8808C127.783 33.8808 127.155 33.591 126.705 33.122L126.694 33.1082L126.598 33.0006L126.576 32.9757L121.616 27.4046V43.2625C121.619 44.6339 120.513 45.7459 119.149 45.7459H108.845L108.804 45.7431C108.777 45.7459 108.746 45.7459 108.719 45.7459C107.898 45.7459 107.171 45.343 106.721 44.7222L106.671 44.6504L98.5171 32.8985L98.5062 32.8819L98.4046 32.7329L98.3909 32.7136C98.1521 32.3328 98.0149 31.8803 98.0149 31.3974C98.0149 30.026 99.121 28.914 100.485 28.914H106.249V23.3953H95.8192V43.2625C95.8192 44.6339 94.7131 45.7459 93.349 45.7459H82.9194C81.5553 45.7459 80.4492 44.6339 80.4492 43.2625V23.3953H71.9408V40.7791H76.0578C77.4219 40.7791 78.528 41.8911 78.528 43.2625C78.528 44.6339 77.4219 45.7459 76.0578 45.7459H69.4707C68.1066 45.7459 67.0005 44.6339 67.0005 43.2625V20.9119C67.0005 19.5405 68.1066 18.4285 69.4707 18.4285H82.9194C84.2835 18.4285 85.3896 19.5405 85.3896 20.9119V40.7791H90.8788V20.9119C90.8788 19.5405 91.9849 18.4285 93.349 18.4285H108.719C110.083 18.4285 111.189 19.5405 111.189 20.9119V31.3974C111.189 32.7688 110.083 33.8808 108.719 33.8808H105.217L110.009 40.7819H116.678L116.684 21.0692V20.7381C116.774 19.4467 117.842 18.4285 119.149 18.4285C119.906 18.4285 120.584 18.7734 121.037 19.3143H121.04L128.48 27.6778L135.907 19.3336L135.929 19.3088L136.025 19.2011L136.036 19.1873C136.486 18.7183 137.115 18.4285 137.812 18.4285C139.176 18.4285 140.282 19.5405 140.282 20.9119C140.282 20.9699 140.28 21.0278 140.277 21.0858L140.282 40.7791H147.144V31.6733C147.144 30.3019 148.25 29.1899 149.614 29.1899C150.978 29.1899 152.084 30.3019 152.084 31.6733Z" fill="#125CFA"/>
</svg>
